# xmcd CD database file
#
# Track frame offsets:
#	150
#	18432
#	38327
#	52279
#	66762
#	84964
#	102614
#	117556
#	138997
#	162009
#	187697
#	205773
#	221982
#	247186
#	266388
#
# Disc length: 3780 seconds
#
# Revision: 0
# Processed by: cddbd v1.5.1PL0 Copyright (c) Steve Scherf et al.
# Submitted via: CDex 1.51
#
DISCID=d40ec20f
DTITLE=PING-Music Label - Nacky's DJ mix for 2 steppers
DYEAR=1900
DGENRE=未分類 (日本)
TTITLE0=RESET YOUR HEART (FM stepping mix)
TTITLE1=MOVIN' TOO FAST
TTITLE2=PLEASE DON'T TURN ME ON
TTITLE3=BUGGIN'
TTITLE4=THINK ABOUT ME
TTITLE5=OUT OF YOUR MIND
TTITLE6=GLAD YOU CAME 2 ME
TTITLE7=WRAPPED UP
TTITLE8=ONLY LOVE
TTITLE9=SET ME FREE
TTITLE10=HOLD ON TO ME
TTITLE11=I CAN'T GIVE IT UP
TTITLE12=DEMONS
TTITLE13=138 TREK
TTITLE14=JOY
EXTD=
EXTT0=
EXTT1=
EXTT2=
EXTT3=
EXTT4=
EXTT5=
EXTT6=
EXTT7=
EXTT8=
EXTT9=
EXTT10=
EXTT11=
EXTT12=
EXTT13=
EXTT14=
PLAYORDER=
